<?xml version="1.0" standalone="no"?><!DOCTYPE svg PUBLIC "-//W3C//DTD SVG 1.1//EN" "http://www.w3.org/Graphics/SVG/1.1/DTD/svg11.dtd"><svg t="1675389276991" class="icon" viewBox="0 0 1024 1024" version="1.1" xmlns="http://www.w3.org/2000/svg" p-id="4857" xmlns:xlink="http://www.w3.org/1999/xlink" width="200" height="200"><path d="M844.9 293.6c70.5 84 111.6 189.1 111.6 294.6 0 236.6-213.9 411.5-477.7 411.5S1 824.8 1 588.2c0-69.5 19.2-137.5 51-199 23.2-44.8 58.3-77.6 68.9-127.6 10.5-49.9 2.1-85-38.7-118.8-19-15.7-12.8-56.9 26.7-58.4 18.6-0.7 46.9 12.5 65.2 13.1 45.3 1.5 73-7.2 103.3-38.6 0 0 90.5-80.4 194.9 2.9 0 0 50.3 63.5 100.6 9.3 0 0 84.5-77.3 143.6-3.1 27.4 34.4 55 8.7 89.3 9.6 14.9 0.4 57.8 9.8 63.2 34.7 3.2 14.8-0.3 30.8-7.3 42.2-8.5 13.9-22.7 35.8-27.5 51.5-10.3 33.5-13.7 58.5 10.7 87.6z" fill="#E5E5E5" p-id="4858"></path><path d="M902.2 302.3c67.9 80.9 108.8 182 108.8 283.6C1011 813.6 805.1 982 551.2 982S91.4 813.6 91.4 585.9c0-66.9 18.4-132.3 49.1-191.5 22.3-43.1 60.3-78.9 70.5-127 10.1-48 0.6-98.7-38.7-131.1-18.2-15.1-8.8-34.3 13.1-33.7 17.9 0.5 34.1 8.7 51.6 11.2 34 4.8 68.7-3.5 98-21.1 14.5-8.7 26.1-20.9 40.1-30.2 15.3-10.2 32.8-17.2 51-20.1 27.8-4.4 56 2.3 80.6 15.4 24.3 12.9 41.3 35.8 66.6 46.8 26.5 11.6 54.6 6 75.6-13.4 0 0 74.3-77.2 131.2-5.8 26.4 33.1 68.3 9.7 101.4 10.6 14.3 0.4 36.4 5.8 42.6 20.7 5.5 13.5-5.9 29.7-12.6 40.6-8.2 13.4-14.8 26-19.4 41.1-10.1 32.2-13.4 76 10.1 103.9z" fill="#FFFFFF" p-id="4859"></path><path d="M551.2 994.5c-126.9 0-245.3-41.1-333.2-115.6-89.7-76.1-139.1-180.1-139.1-293 0-65.3 17.5-133.5 50.5-197.3 8.5-16.4 19.1-31.7 29.3-46.4 17.5-25.3 34.1-49.3 40.1-77.4 10.3-49-2.2-92.3-34.4-118.9-12.3-10.2-17-24.1-12.5-36.2 4.7-12.5 17.7-20.1 33.9-19.6 11.9 0.3 22.6 3.4 32.9 6.4 7 2 13.6 3.9 20.2 4.9 30 4.2 61.9-2.7 89.8-19.4 7.1-4.3 13.7-9.6 20.6-15.3 6-4.9 12.2-10 19.1-14.6 16.9-11.3 36.3-18.9 55.9-22 28.8-4.6 59.4 1.2 88.4 16.7 12.3 6.6 22.6 15.2 32.6 23.5 10.9 9.1 21.1 17.7 33.1 22.9 21.5 9.4 44.1 5.4 61.9-10.9 4-4.1 42.3-41.6 87.3-39.5 23.8 1.1 44.8 12.9 62.4 34.9 13 16.3 30.7 14.5 58.2 9.6 11.1-2 22.6-4 33.7-3.7 19.6 0.5 45.4 8.3 53.8 28.4 7.5 18.4-4.1 36.9-11.8 49.2-0.6 1-1.2 1.9-1.7 2.8-9.1 14.9-14.4 26-18.1 38.2v0.1c-4.4 14.2-17 62.7 7.7 92.1 35.2 41.9 62.7 88.2 81.9 137.5 19.8 50.8 29.8 102.6 29.8 154.1 0 112.9-49.4 216.9-139.1 293-87.9 74.4-206.3 115.5-333.2 115.5zM184.4 115.1c-5.7 0-8.6 2.1-9.1 3.4-0.6 1.5 1 4.8 5 8.2 20.7 17.1 34.9 39.4 42 66.1 6.3 23.7 6.6 50.4 1 77.2-7 33.1-25.8 60.2-44 86.5-10.2 14.8-19.9 28.7-27.6 43.7C120.5 460.4 104 524.6 104 586c0 215.1 196.5 383.6 447.3 383.6S998.6 801.1 998.6 586c0-96.3-37.6-194.2-105.9-275.5-32.9-39.1-17.9-98.3-12.5-115.6 5.4-17.8 13.5-32.2 20.7-43.9 0.6-1 1.2-1.9 1.8-2.9 5-8 12.5-20 9.9-26.4-3.2-7.6-18.4-12.6-31.4-12.9-8.5-0.2-18.3 1.5-28.7 3.3-26.3 4.7-59 10.4-82.1-18.6-13.1-16.4-27.5-24.8-44-25.5-29.4-1.7-59.4 22.4-68.5 31.9l-0.5 0.5c-25.1 23.2-58.4 29.1-89.1 15.7-15.3-6.6-27.4-16.8-39.1-26.6-9.4-7.9-18.3-15.3-28.3-20.6-16.9-9-43.3-18.8-72.8-14.1-16.1 2.6-32.1 8.9-46 18.2-5.8 3.9-11.3 8.3-17 13.1-7.3 6-14.8 12.2-23.6 17.4-32.8 19.7-70.5 27.8-106.2 22.8-8.3-1.2-16.1-3.5-23.6-5.6-9.2-2.7-17.9-5.2-26.6-5.4-0.3-0.2-0.5-0.2-0.7-0.2z" fill="#E8525F" p-id="4860"></path><path d="M293.3 289.1c-15.1 0-28.4-2.6-39.1-6-27.4-8.5-44.3-23.2-45-23.9l16.5-18.8c0.1 0.1 14.3 12.3 36.9 19.1 29.6 8.9 59.4 5 88.6-11.8l12.4 21.7c-25.7 14.8-49.7 19.7-70.3 19.7z" fill="#E8525F" p-id="4861"></path><path d="M358.1 257.9m-30.6 0a30.6 30.6 0 1 0 61.2 0 30.6 30.6 0 1 0-61.2 0Z" fill="#E8525F" p-id="4862"></path><path d="M810 287.2c-20 0-43.6-4.4-69.8-17.4l11.1-22.4c31.9 15.8 62.6 19.1 91.3 9.7 21.7-7 34.2-19 34.3-19.1l17.5 17.8c-0.6 0.6-16 15.6-42.8 24.6-11 3.8-25.1 6.8-41.6 6.8z" fill="#E8525F" p-id="4863"></path><path d="M745 257.9m-30.6 0a30.6 30.6 0 1 0 61.2 0 30.6 30.6 0 1 0-61.2 0Z" fill="#E8525F" p-id="4864"></path><path d="M468.8 257.9m-30.6 0a30.6 30.6 0 1 0 61.2 0 30.6 30.6 0 1 0-61.2 0Z" fill="#E8525F" p-id="4865"></path><path d="M635 257.9m-30.6 0a30.6 30.6 0 1 0 61.2 0 30.6 30.6 0 1 0-61.2 0Z" fill="#E8525F" p-id="4866"></path><path d="M554.5 299.4c-13.4 0-25.5-2-35.9-4.7-33.1-8.7-55.2-26.3-56.1-27l15.7-19.5-7.8 9.7 7.8-9.8c0.2 0.2 19.5 15.4 47.7 22.6 36.6 9.3 70.6 1.3 101.3-23.9l15.9 19.3c-31.1 25.5-62.2 33.3-88.6 33.3z" fill="#E8525F" p-id="4867"></path><path d="M183.5 144.1c-1.4-1.6-13.1-15.7-8.2-27.2 2.9-6.8 10.4-10.6 22.5-11.3l0.6 10c-7.7 0.5-12.7 2.3-13.9 5.2-1.9 4.6 3.7 13.5 6.6 16.8l-7.6 6.5z" fill="#E8525F" p-id="4868"></path><path d="M551.2 600.7m-264.1 0a264.1 264.1 0 1 0 528.2 0 264.1 264.1 0 1 0-528.2 0Z" fill="#E8525F" p-id="4869"></path><path d="M380 517.4c-7.7 0-13.4-6.1-13.4-13.4v-0.8c0-7.3 5.7-13.4 13.4-13.4h106.5c7.7 0 13.4 6.1 13.4 13.4v0.8c0 7.3-5.7 13.4-13.4 13.4h-36.6v253.3c0 7.3-6.1 13.4-13.4 13.4h-0.8c-7.3 0-13.4-6.1-13.4-13.4V517.4H380z m-8.2 249.2c8.1-59.4 10.6-123.6 10.6-188.3v-25.2c0-7.7 5.7-13.4 13-13.8h0.8c7.3 0 13.4 5.7 13.8 13.4v25.6c0 41.9-1.2 79.3-3.3 113-1.6 28.5-4.5 54.5-7.7 78.9-0.8 7.3-7.7 12.6-15 11.4l-1.2-0.4c-6.9-1.1-11.8-7.6-11-14.6z m20.8-314.7c-7.3 0-13.4-5.7-13.4-13.4s6.1-13.4 13.4-13.4H482c7.3 0 13.4 5.7 13.4 13.4s-6.1 13.4-13.4 13.4h-89.4z m70.3 101.3c-0.4-7.3 5.7-13.4 12.6-13.8h0.8c7.3 0 13.8 5.7 13.8 13l6.5 217.5c0 7.3-5.7 13.8-13.4 13.8h-0.8c-6.9 0.4-13-5.7-13.4-13l-6.1-217.5z m98.8 228.1c-5.7 0-11.4-1.2-16.3-3.3-10.2-4.5-17.5-12.2-22-22.8-2-5.3-3.3-10.6-3.3-17.1V636.9c0-5.7 1.2-11.4 3.3-16.3 4.5-10.6 11.8-19.1 22-23.6 4.9-2.4 10.6-3.3 16.3-3.3h132.6c17.5 0 31.7 11 37.8 26.8 2.4 4.9 3.3 10.6 3.3 16.3v101.3c0 17.9-9.4 32.5-25.2 39.9-4.9 2-10.6 3.3-15.9 3.3H561.7z m159-364.4c6.9 0 13 6.1 13 13.4v0.8c0 7.3-6.1 13.4-13 13.4H535.3c-7.3 0-13-6.1-13-13.4v-0.8c0-7.3 5.7-13.4 13-13.4h185.4z m-29.3 47.2c14.6 0 26.4 8.9 31.7 22.4 1.6 4.5 2.8 8.9 2.8 13.8v36.2c0 9.4-4.1 18.7-10.2 25.6-6.5 6.5-15 10.2-24.4 10.2H564.6c-9.8 0-17.5-3.3-24.4-10.2-6.5-7.3-10.2-15.5-10.2-25.6v-36.2c0-9.8 3.7-18.3 10.2-25.6 6.9-7.3 14.6-10.6 24.4-10.6h126.8zM551.6 625.5c-2.4 3.3-3.7 6.9-3.7 11.4v37h66.3V621h-52.5c-4 0.1-7.7 1.7-10.1 4.5z m0 123.7c2.4 3.3 6.1 4.9 10.2 4.9h52.5v-52.5H548v36.6c-0.1 4.5 1.1 8.1 3.6 11z m13-257.9c-2 0-3.7 0.8-4.9 2.8-1.6 1.6-2 3.7-2 6.1v36.2c0 2.4 0.4 4.5 2 6.1 1.2 1.6 2.8 2.4 4.9 2.4h126.9c4.5 0 6.9-4.5 6.9-8.5v-36.2c0-4.1-2-8.9-6.9-8.9H564.6z m143.5 145.6c0-4.5-1.2-8.1-4.1-11.4-2.8-2.8-6.1-4.5-9.8-4.5h-52.9v52.9H708l0.1-37zM694.3 754c3.7 0 6.9-1.6 9.8-4.9 2.8-2.8 4.1-6.5 4.1-11v-36.6h-66.7V754h52.8z" fill="#FFFFFF" p-id="4870"></path><path d="M917.8 438c26.3 55.4 5.1 113.6-13.6 110.8-24.4-3.6-1.3-43.2-24.5-93-25.8-55.1-66.5-65.7-55.9-84.3 8.9-15.9 65.8 7 94 66.5z" fill="#F8CBCF" p-id="4871"></path></svg>